# xmcd CD database file
#
# Track frame offsets:
#	182
#	24455
#	49372
#	74140
#	88425
#	113260
#	133825
#	151495
#	175547
#	200827
#
# Disc length: 2909 seconds
#
# Revision: 0
# Processed by: cddbd v1.4PL0 Copyright (c) Steve Scherf et al.
# Submitted via: CDex 1.50
#
DISCID=910b5b0a
DTITLE=Varios - Pasaporte Afrolatino 2
DYEAR=1998
DGENRE=Salsa
TTITLE0=Joao Mendoza y Salsabor - Cantos de sirena
TTITLE1=Joao Mendoza y Salsabor - Ya yo sé
TTITLE2=Joao Mendoza y Salsabor - Qué será
TTITLE3=Covergencia - Entre mis brazos
TTITLE4=Covergencia - La reina mía
TTITLE5=Covergencia - De mi Cuba vengo yo
TTITLE6=Covergencia - Añorado encuentro
TTITLE7=Jelengue - El bodeguero
TTITLE8=Jelengue - A mi jelengue
TTITLE9=Jelengue - Ave de paso
EXTD=YEAR: 1998
EXTT0=
EXTT1=
EXTT2=
EXTT3=
EXTT4=
EXTT5=
EXTT6=
EXTT7=
EXTT8=
EXTT9=
PLAYORDER=
